# xmcd CD database file
#
# Track frame offsets:
#	150
#	14304
#	64835
#	85145
#	103408
#	129427
#	170805
#	200765
#	235745
#	265901
#	303430
#	331843
#
# Disc length: 4791 seconds
#
# Revision: 0
# Processed by: cddbd v1.5.2PL0 Copyright (c) Steve Scherf et al.
# Submitted via: CDex 1.51
#
DISCID=a812b50c
DTITLE=Harold Land - Carmell Jones - The Harold Land Carmell Jones Quintets - CD1
DYEAR=2007
DGENRE=Jazz
TTITLE0=Blues march
TTITLE1=I'm gonna go fishing
TTITLE2=Come rain or come shine
TTITLE3=Night tide
TTITLE4=Sad march
TTITLE5=Stellisa
TTITLE6=Full moon and empty arms
TTITLE7=Tripplin' awhile
TTITLE8=Somara
TTITLE9=Catacomb
TTITLE10=The way I feel
TTITLE11=I'm old fashioned
EXTD=YEAR: 2007
EXTT0=
EXTT1=
EXTT2=
EXTT3=
EXTT4=
EXTT5=
EXTT6=
EXTT7=
EXTT8=
EXTT9=
EXTT10=
EXTT11=
PLAYORDER=
